<svg xmlns="http://www.w3.org/2000/svg" xmlns:xlink="http://www.w3.org/1999/xlink" width="500" zoomAndPan="magnify" viewBox="0 0 375 149.999998" height="200" preserveAspectRatio="xMidYMid meet" version="1.0"><defs><g/><clipPath id="b3bf3458c2"><path d="M 4.125 20.140625 L 114.796875 20.140625 L 114.796875 129.527344 L 4.125 129.527344 Z M 4.125 20.140625 " clip-rule="nonzero"/></clipPath><clipPath id="b450572c29"><path d="M 15.023438 20.140625 L 103.476562 20.140625 C 106.367188 20.140625 109.136719 21.289062 111.179688 23.332031 C 113.222656 25.375 114.371094 28.148438 114.371094 31.039062 L 114.371094 118.632812 C 114.371094 121.523438 113.222656 124.292969 111.179688 126.335938 C 109.136719 128.378906 106.367188 129.527344 103.476562 129.527344 L 15.023438 129.527344 C 12.132812 129.527344 9.359375 128.378906 7.316406 126.335938 C 5.273438 124.292969 4.125 121.523438 4.125 118.632812 L 4.125 31.039062 C 4.125 28.148438 5.273438 25.375 7.316406 23.332031 C 9.359375 21.289062 12.132812 20.140625 15.023438 20.140625 Z M 15.023438 20.140625 " clip-rule="nonzero"/></clipPath></defs><g clip-path="url(#b3bf3458c2)"><g clip-path="url(#b450572c29)"><path fill="#53b88b" d="M 4.125 20.140625 L 114.367188 20.140625 L 114.367188 129.527344 L 4.125 129.527344 Z M 4.125 20.140625 " fill-opacity="1" fill-rule="nonzero"/></g></g><g fill="#2b2c2c" fill-opacity="1"><g transform="translate(160.789394, 68.979271)"><g><path d="M 20.59375 -27.390625 C 20.007812 -28.515625 18.960938 -29.441406 17.453125 -30.171875 C 15.953125 -30.910156 14.363281 -31.28125 12.6875 -31.28125 C 11.019531 -31.28125 9.59375 -30.800781 8.40625 -29.84375 C 7.21875 -28.894531 6.625 -27.609375 6.625 -25.984375 C 6.625 -24.347656 7.0625 -23.070312 7.9375 -22.15625 C 8.8125 -21.25 9.894531 -20.613281 11.1875 -20.25 C 12.488281 -19.894531 13.910156 -19.460938 15.453125 -18.953125 C 17.003906 -18.441406 18.425781 -17.910156 19.71875 -17.359375 C 21.019531 -16.804688 22.109375 -15.863281 22.984375 -14.53125 C 23.867188 -13.207031 24.3125 -11.597656 24.3125 -9.703125 C 24.3125 -7.816406 23.96875 -6.195312 23.28125 -4.84375 C 22.59375 -3.5 21.664062 -2.453125 20.5 -1.703125 C 18.238281 -0.234375 15.660156 0.5 12.765625 0.5 C 9.867188 0.5 7.398438 0.03125 5.359375 -0.90625 C 3.328125 -1.84375 2.3125 -2.976562 2.3125 -4.3125 C 2.3125 -5.101562 2.738281 -5.773438 3.59375 -6.328125 C 3.875 -6.492188 4.320312 -6.734375 4.9375 -7.046875 C 5.59375 -5.773438 6.765625 -4.738281 8.453125 -3.9375 C 10.140625 -3.132812 11.90625 -2.734375 13.75 -2.734375 C 15.570312 -2.734375 17.164062 -3.25 18.53125 -4.28125 C 19.90625 -5.320312 20.59375 -6.738281 20.59375 -8.53125 C 20.59375 -10.300781 19.984375 -11.65625 18.765625 -12.59375 C 17.554688 -13.539062 16.085938 -14.253906 14.359375 -14.734375 C 12.628906 -15.210938 10.898438 -15.742188 9.171875 -16.328125 C 7.441406 -16.910156 5.96875 -17.894531 4.75 -19.28125 C 3.539062 -20.675781 2.9375 -22.519531 2.9375 -24.8125 C 2.9375 -27.96875 3.972656 -30.378906 6.046875 -32.046875 C 8.117188 -33.722656 10.757812 -34.5625 13.96875 -34.5625 C 16.332031 -34.5625 18.515625 -34.148438 20.515625 -33.328125 C 22.523438 -32.515625 23.53125 -31.390625 23.53125 -29.953125 C 23.53125 -28.578125 22.550781 -27.722656 20.59375 -27.390625 Z M 20.59375 -27.390625 "/></g></g></g><g fill="#2b2c2c" fill-opacity="1"><g transform="translate(190.022305, 68.979271)"><g><path d="M 34.0625 -17.0625 C 34.0625 -11.707031 32.628906 -7.441406 29.765625 -4.265625 C 26.910156 -1.085938 23.078125 0.5 18.265625 0.5 C 13.441406 0.5 9.609375 -1.085938 6.765625 -4.265625 C 3.929688 -7.441406 2.515625 -11.707031 2.515625 -17.0625 C 2.515625 -22.394531 3.929688 -26.644531 6.765625 -29.8125 C 9.609375 -32.976562 13.441406 -34.5625 18.265625 -34.5625 C 23.078125 -34.5625 26.910156 -32.976562 29.765625 -29.8125 C 32.628906 -26.644531 34.0625 -22.394531 34.0625 -17.0625 Z M 27.171875 -26.46875 C 26.316406 -27.96875 25.117188 -29.171875 23.578125 -30.078125 C 22.035156 -30.984375 20.269531 -31.4375 18.28125 -31.4375 C 14.757812 -31.4375 11.953125 -30.226562 9.859375 -27.8125 C 7.765625 -25.40625 6.71875 -22.332031 6.71875 -18.59375 C 6.71875 -14.53125 7.582031 -10.914062 9.3125 -7.75 C 10.164062 -6.175781 11.351562 -4.925781 12.875 -4 C 14.394531 -3.070312 16.164062 -2.609375 18.1875 -2.609375 C 21.882812 -2.609375 24.734375 -3.847656 26.734375 -6.328125 C 28.742188 -8.816406 29.75 -12.039062 29.75 -16 C 29.75 -19.945312 28.890625 -23.4375 27.171875 -26.46875 Z M 27.171875 -26.46875 "/></g></g></g><g fill="#2b2c2c" fill-opacity="1"><g transform="translate(229.213117, 68.979271)"><g><path d="M 3.640625 -2.9375 L 3.765625 -11.515625 L 3.765625 -22.15625 C 3.765625 -26.96875 3.640625 -30.9375 3.390625 -34.0625 C 3.972656 -34.164062 4.675781 -34.21875 5.5 -34.21875 C 7.164062 -34.21875 8 -33.566406 8 -32.265625 C 8 -32.054688 7.96875 -31.367188 7.90625 -30.203125 C 7.695312 -26.640625 7.59375 -23.488281 7.59375 -20.75 L 7.59375 -16.125 C 7.59375 -9 7.710938 -4.6875 7.953125 -3.1875 C 9.390625 -3.113281 10.523438 -3.078125 11.359375 -3.078125 C 16.691406 -3.078125 20.128906 -3.472656 21.671875 -4.265625 C 21.921875 -3.546875 22.046875 -2.832031 22.046875 -2.125 C 22.046875 -1.425781 21.890625 -0.941406 21.578125 -0.671875 C 20.992188 -0.160156 18.507812 0.09375 14.125 0.09375 C 9.738281 0.09375 7.054688 0.0664062 6.078125 0.015625 C 5.097656 -0.0234375 4.445312 -0.265625 4.125 -0.703125 C 3.800781 -1.148438 3.640625 -1.894531 3.640625 -2.9375 Z M 3.640625 -2.9375 "/></g></g></g><g fill="#2b2c2c" fill-opacity="1"><g transform="translate(253.880945, 68.979271)"><g><path d="M 4.109375 -9.859375 L 4.5625 -25.734375 C 4.5625 -28.992188 4.269531 -31.6875 3.6875 -33.8125 C 4.375 -34.082031 5.1875 -34.21875 6.125 -34.21875 C 7.039062 -34.21875 7.726562 -34.019531 8.1875 -33.625 C 8.644531 -33.226562 8.875 -32.421875 8.875 -31.203125 C 8.875 -29.984375 8.75 -26.863281 8.5 -21.84375 C 8.25 -16.832031 8.125 -13.035156 8.125 -10.453125 C 8.125 -7.867188 8.8125 -5.941406 10.1875 -4.671875 C 11.570312 -3.410156 13.144531 -2.78125 14.90625 -2.78125 C 16.644531 -2.78125 18.441406 -3.191406 20.296875 -4.015625 C 22.148438 -4.835938 23.65625 -5.789062 24.8125 -6.875 L 24.859375 -13.46875 L 24.859375 -22.15625 C 24.859375 -26.96875 24.742188 -30.9375 24.515625 -34.0625 C 25.097656 -34.164062 25.796875 -34.21875 26.609375 -34.21875 C 28.285156 -34.21875 29.125 -33.566406 29.125 -32.265625 C 29.125 -32.191406 29.09375 -31.554688 29.03125 -30.359375 C 28.820312 -26.753906 28.71875 -22.113281 28.71875 -16.4375 C 28.71875 -10.75 28.769531 -7.003906 28.875 -5.203125 C 28.976562 -3.410156 29.253906 -1.757812 29.703125 -0.25 C 29.078125 0.0195312 28.28125 0.15625 27.3125 0.15625 C 26.332031 0.15625 25.660156 -0.0546875 25.296875 -0.484375 C 24.941406 -0.910156 24.765625 -1.710938 24.765625 -2.890625 L 24.765625 -3.4375 C 23.390625 -2.28125 21.742188 -1.332031 19.828125 -0.59375 C 17.910156 0.132812 16.148438 0.5 14.546875 0.5 C 11.316406 0.5 8.769531 -0.257812 6.90625 -1.78125 C 5.039062 -3.300781 4.109375 -5.992188 4.109375 -9.859375 Z M 4.109375 -9.859375 "/></g></g></g><g fill="#2b2c2c" fill-opacity="1"><g transform="translate(289.585238, 68.979271)"><g><path d="M 9.953125 -2.78125 L 10.0625 -11.859375 L 10.0625 -22.15625 C 10.0625 -25.332031 10.007812 -28.257812 9.90625 -30.9375 C 5.039062 -30.9375 1.789062 -30.867188 0.15625 -30.734375 C 0.0507812 -31.035156 0 -31.507812 0 -32.15625 C 0 -32.8125 0.175781 -33.257812 0.53125 -33.5 C 0.894531 -33.738281 1.484375 -33.875 2.296875 -33.90625 C 3.117188 -33.945312 4.9375 -33.96875 7.75 -33.96875 L 13.828125 -33.96875 C 19.222656 -33.96875 22.523438 -34.015625 23.734375 -34.109375 C 23.828125 -33.796875 23.875 -33.332031 23.875 -32.71875 C 23.875 -32.082031 23.691406 -31.640625 23.328125 -31.390625 C 22.972656 -31.148438 22.335938 -31.015625 21.421875 -30.984375 C 20.503906 -30.953125 18.125 -30.9375 14.28125 -30.9375 C 14.039062 -26.03125 13.921875 -22.632812 13.921875 -20.75 L 13.921875 -10.4375 C 13.921875 -5.800781 14.25 -2.40625 14.90625 -0.25 C 14.28125 0.0195312 13.476562 0.15625 12.5 0.15625 C 11.488281 0.15625 10.8125 -0.0625 10.46875 -0.5 C 10.125 -0.945312 9.953125 -1.707031 9.953125 -2.78125 Z M 9.953125 -2.78125 "/></g></g></g><g fill="#2b2c2c" fill-opacity="1"><g transform="translate(316.084109, 68.979271)"><g><path d="M 25.484375 -32.203125 C 25.484375 -31.359375 24.179688 -28.941406 21.578125 -24.953125 C 18.984375 -20.960938 16.707031 -17.796875 14.75 -15.453125 L 14.75 -11.09375 C 14.75 -6.09375 15.078125 -2.476562 15.734375 -0.25 C 15.109375 0.0195312 14.304688 0.15625 13.328125 0.15625 C 12.316406 0.15625 11.640625 -0.0625 11.296875 -0.5 C 10.953125 -0.945312 10.78125 -1.707031 10.78125 -2.78125 C 10.820312 -5.925781 10.859375 -8.972656 10.890625 -11.921875 L 10.890625 -15.09375 C 5.921875 -24.445312 2.125 -30.019531 -0.5 -31.8125 C 0 -32.5 0.367188 -32.941406 0.609375 -33.140625 C 0.859375 -33.335938 1.097656 -33.546875 1.328125 -33.765625 C 1.742188 -34.097656 2.210938 -34.265625 2.734375 -34.265625 C 3.585938 -34.265625 4.40625 -33.679688 5.1875 -32.515625 C 7.25 -29.535156 9.992188 -24.875 13.421875 -18.53125 C 15.054688 -20.695312 16.804688 -23.582031 18.671875 -27.1875 C 20.535156 -30.800781 21.503906 -33.242188 21.578125 -34.515625 C 24.179688 -34.347656 25.484375 -33.578125 25.484375 -32.203125 Z M 25.484375 -32.203125 "/></g></g></g><g fill="#90948f" fill-opacity="1"><g transform="translate(29.08363, 116.644235)"><g><path d="M 56.390625 -15.03125 C 51.347656 -11.15625 45.019531 -7.878906 37.40625 -5.203125 C 29.800781 -2.535156 21.097656 -0.65625 11.296875 0.4375 C 9.328125 0.65625 7.753906 0.78125 6.578125 0.8125 C 5.410156 0.851562 4.769531 0.765625 4.65625 0.546875 C 4.550781 0.328125 5.046875 -0.0703125 6.140625 -0.65625 C 7.242188 -1.238281 9.035156 -2.082031 11.515625 -3.1875 C 14.441406 -4.425781 17.3125 -5.738281 20.125 -7.125 C 22.945312 -8.519531 25.617188 -9.929688 28.140625 -11.359375 C 30.660156 -12.785156 32.984375 -14.191406 35.109375 -15.578125 C 37.234375 -16.972656 39.023438 -18.289062 40.484375 -19.53125 C 44.429688 -22.820312 47.191406 -25.582031 48.765625 -27.8125 C 50.335938 -30.039062 50.210938 -31.816406 48.390625 -33.140625 C 46.773438 -34.304688 44.503906 -35.179688 41.578125 -35.765625 C 38.648438 -36.347656 35.503906 -36.914062 32.140625 -37.46875 C 28.773438 -38.019531 25.351562 -38.660156 21.875 -39.390625 C 18.40625 -40.117188 15.320312 -41.21875 12.625 -42.6875 C 11.082031 -43.5625 10.109375 -44.859375 9.703125 -46.578125 C 9.304688 -48.296875 9.34375 -50.195312 9.8125 -52.28125 C 10.289062 -54.363281 11.171875 -56.484375 12.453125 -58.640625 C 13.734375 -60.796875 15.285156 -62.71875 17.109375 -64.40625 C 19.160156 -66.300781 21.082031 -67.925781 22.875 -69.28125 C 24.664062 -70.632812 26.4375 -71.820312 28.1875 -72.84375 C 29.945312 -73.875 31.738281 -74.753906 33.5625 -75.484375 C 35.394531 -76.210938 37.335938 -76.910156 39.390625 -77.578125 C 40.628906 -77.941406 41.890625 -77.882812 43.171875 -77.40625 C 44.453125 -76.925781 45.675781 -76.210938 46.84375 -75.265625 C 48.019531 -74.316406 49.0625 -73.238281 49.96875 -72.03125 C 50.882812 -70.820312 51.582031 -69.664062 52.0625 -68.5625 C 52.539062 -67.46875 52.757812 -66.554688 52.71875 -65.828125 C 52.6875 -65.097656 52.265625 -64.734375 51.453125 -64.734375 C 45.234375 -64.660156 39.75 -64.179688 35 -63.296875 C 30.25 -62.421875 26.191406 -61.289062 22.828125 -59.90625 C 20.703125 -59.03125 19.601562 -58.0625 19.53125 -57 C 19.457031 -55.9375 20.519531 -54.566406 22.71875 -52.890625 C 25.125 -51.054688 27.878906 -49.460938 30.984375 -48.109375 C 34.097656 -46.753906 37.191406 -45.472656 40.265625 -44.265625 C 43.335938 -43.066406 46.28125 -41.898438 49.09375 -40.765625 C 51.914062 -39.628906 54.273438 -38.398438 56.171875 -37.078125 C 58.585938 -35.398438 60.140625 -33.460938 60.828125 -31.265625 C 61.523438 -29.078125 61.726562 -26.921875 61.4375 -24.796875 C 61.144531 -22.671875 60.503906 -20.710938 59.515625 -18.921875 C 58.535156 -17.128906 57.492188 -15.832031 56.390625 -15.03125 Z M 56.390625 -15.03125 "/></g></g></g><g fill="#ffffff" fill-opacity="1"><g transform="translate(31.586471, 116.354048)"><g><path d="M 56.390625 -15.03125 C 51.347656 -11.15625 45.019531 -7.878906 37.40625 -5.203125 C 29.800781 -2.535156 21.097656 -0.65625 11.296875 0.4375 C 9.328125 0.65625 7.753906 0.78125 6.578125 0.8125 C 5.410156 0.851562 4.769531 0.765625 4.65625 0.546875 C 4.550781 0.328125 5.046875 -0.0703125 6.140625 -0.65625 C 7.242188 -1.238281 9.035156 -2.082031 11.515625 -3.1875 C 14.441406 -4.425781 17.3125 -5.738281 20.125 -7.125 C 22.945312 -8.519531 25.617188 -9.929688 28.140625 -11.359375 C 30.660156 -12.785156 32.984375 -14.191406 35.109375 -15.578125 C 37.234375 -16.972656 39.023438 -18.289062 40.484375 -19.53125 C 44.429688 -22.820312 47.191406 -25.582031 48.765625 -27.8125 C 50.335938 -30.039062 50.210938 -31.816406 48.390625 -33.140625 C 46.773438 -34.304688 44.503906 -35.179688 41.578125 -35.765625 C 38.648438 -36.347656 35.503906 -36.914062 32.140625 -37.46875 C 28.773438 -38.019531 25.351562 -38.660156 21.875 -39.390625 C 18.40625 -40.117188 15.320312 -41.21875 12.625 -42.6875 C 11.082031 -43.5625 10.109375 -44.859375 9.703125 -46.578125 C 9.304688 -48.296875 9.34375 -50.195312 9.8125 -52.28125 C 10.289062 -54.363281 11.171875 -56.484375 12.453125 -58.640625 C 13.734375 -60.796875 15.285156 -62.71875 17.109375 -64.40625 C 19.160156 -66.300781 21.082031 -67.925781 22.875 -69.28125 C 24.664062 -70.632812 26.4375 -71.820312 28.1875 -72.84375 C 29.945312 -73.875 31.738281 -74.753906 33.5625 -75.484375 C 35.394531 -76.210938 37.335938 -76.910156 39.390625 -77.578125 C 40.628906 -77.941406 41.890625 -77.882812 43.171875 -77.40625 C 44.453125 -76.925781 45.675781 -76.210938 46.84375 -75.265625 C 48.019531 -74.316406 49.0625 -73.238281 49.96875 -72.03125 C 50.882812 -70.820312 51.582031 -69.664062 52.0625 -68.5625 C 52.539062 -67.46875 52.757812 -66.554688 52.71875 -65.828125 C 52.6875 -65.097656 52.265625 -64.734375 51.453125 -64.734375 C 45.234375 -64.660156 39.75 -64.179688 35 -63.296875 C 30.25 -62.421875 26.191406 -61.289062 22.828125 -59.90625 C 20.703125 -59.03125 19.601562 -58.0625 19.53125 -57 C 19.457031 -55.9375 20.519531 -54.566406 22.71875 -52.890625 C 25.125 -51.054688 27.878906 -49.460938 30.984375 -48.109375 C 34.097656 -46.753906 37.191406 -45.472656 40.265625 -44.265625 C 43.335938 -43.066406 46.28125 -41.898438 49.09375 -40.765625 C 51.914062 -39.628906 54.273438 -38.398438 56.171875 -37.078125 C 58.585938 -35.398438 60.140625 -33.460938 60.828125 -31.265625 C 61.523438 -29.078125 61.726562 -26.921875 61.4375 -24.796875 C 61.144531 -22.671875 60.503906 -20.710938 59.515625 -18.921875 C 58.535156 -17.128906 57.492188 -15.832031 56.390625 -15.03125 Z M 56.390625 -15.03125 "/></g></g></g><g fill="#2b2c2c" fill-opacity="1"><g transform="translate(133.673705, 112.744313)"><g><path d="M 5.25 -14.328125 C 4.875 -14.328125 4.335938 -14.296875 3.640625 -14.234375 C 3.710938 -12.921875 3.75 -11.164062 3.75 -8.96875 C 4.25 -8.9375 4.675781 -8.921875 5.03125 -8.921875 C 7.9375 -8.921875 9.390625 -9.8125 9.390625 -11.59375 C 9.390625 -13.414062 8.007812 -14.328125 5.25 -14.328125 Z M 6.375 -1.1875 C 7.382812 -1.1875 8.234375 -1.472656 8.921875 -2.046875 C 9.609375 -2.617188 9.953125 -3.421875 9.953125 -4.453125 C 9.953125 -5.492188 9.566406 -6.300781 8.796875 -6.875 C 8.023438 -7.457031 7.101562 -7.75 6.03125 -7.75 C 4.957031 -7.75 4.191406 -7.710938 3.734375 -7.640625 C 3.734375 -6.390625 3.628906 -4.519531 3.421875 -2.03125 C 3.710938 -1.800781 4.140625 -1.601562 4.703125 -1.4375 C 5.273438 -1.269531 5.832031 -1.1875 6.375 -1.1875 Z M 1.609375 -1.25 C 1.859375 -3.019531 1.984375 -5.492188 1.984375 -8.671875 C 1.984375 -11.835938 1.882812 -14.109375 1.6875 -15.484375 C 2.84375 -15.671875 4.179688 -15.765625 5.703125 -15.765625 C 7.203125 -15.765625 8.492188 -15.453125 9.578125 -14.828125 C 10.660156 -14.203125 11.203125 -13.140625 11.203125 -11.640625 C 11.203125 -10.140625 10.519531 -9.082031 9.15625 -8.46875 C 10.882812 -7.738281 11.75 -6.40625 11.75 -4.46875 C 11.75 -2.988281 11.269531 -1.832031 10.3125 -1 C 9.351562 -0.175781 8.179688 0.234375 6.796875 0.234375 C 4.523438 0.234375 2.796875 -0.257812 1.609375 -1.25 Z M 1.609375 -1.25 "/></g></g></g><g fill="#2b2c2c" fill-opacity="1"><g transform="translate(147.676265, 112.744313)"><g><path d="M 1.875 -4.5 L 2.078125 -11.734375 C 2.078125 -13.222656 1.945312 -14.453125 1.6875 -15.421875 C 2 -15.535156 2.367188 -15.59375 2.796875 -15.59375 C 3.210938 -15.59375 3.523438 -15.503906 3.734375 -15.328125 C 3.941406 -15.148438 4.046875 -14.785156 4.046875 -14.234375 C 4.046875 -13.671875 3.988281 -12.242188 3.875 -9.953125 C 3.757812 -7.671875 3.703125 -5.941406 3.703125 -4.765625 C 3.703125 -3.585938 4.015625 -2.707031 4.640625 -2.125 C 5.273438 -1.550781 5.992188 -1.265625 6.796875 -1.265625 C 7.585938 -1.265625 8.40625 -1.453125 9.25 -1.828125 C 10.09375 -2.203125 10.78125 -2.640625 11.3125 -3.140625 L 11.328125 -6.140625 L 11.328125 -10.09375 C 11.328125 -12.289062 11.273438 -14.101562 11.171875 -15.53125 C 11.441406 -15.570312 11.765625 -15.59375 12.140625 -15.59375 C 12.898438 -15.59375 13.28125 -15.296875 13.28125 -14.703125 C 13.28125 -14.671875 13.265625 -14.382812 13.234375 -13.84375 C 13.140625 -12.195312 13.09375 -10.078125 13.09375 -7.484375 C 13.09375 -4.898438 13.113281 -3.195312 13.15625 -2.375 C 13.207031 -1.550781 13.335938 -0.796875 13.546875 -0.109375 C 13.265625 0.00390625 12.898438 0.0625 12.453125 0.0625 C 12.003906 0.0625 11.695312 -0.03125 11.53125 -0.21875 C 11.363281 -0.414062 11.28125 -0.78125 11.28125 -1.3125 L 11.28125 -1.5625 C 10.65625 -1.039062 9.90625 -0.609375 9.03125 -0.265625 C 8.164062 0.0664062 7.367188 0.234375 6.640625 0.234375 C 5.160156 0.234375 3.992188 -0.113281 3.140625 -0.8125 C 2.296875 -1.507812 1.875 -2.738281 1.875 -4.5 Z M 1.875 -4.5 "/></g></g></g><g fill="#2b2c2c" fill-opacity="1"><g transform="translate(163.954478, 112.744313)"><g><path d="M 9.390625 -12.484375 C 9.117188 -12.992188 8.640625 -13.414062 7.953125 -13.75 C 7.273438 -14.09375 6.550781 -14.265625 5.78125 -14.265625 C 5.019531 -14.265625 4.367188 -14.046875 3.828125 -13.609375 C 3.285156 -13.171875 3.015625 -12.582031 3.015625 -11.84375 C 3.015625 -11.101562 3.210938 -10.523438 3.609375 -10.109375 C 4.015625 -9.691406 4.515625 -9.398438 5.109375 -9.234375 C 5.703125 -9.066406 6.347656 -8.867188 7.046875 -8.640625 C 7.753906 -8.410156 8.398438 -8.164062 8.984375 -7.90625 C 9.578125 -7.65625 10.070312 -7.226562 10.46875 -6.625 C 10.875 -6.019531 11.078125 -5.285156 11.078125 -4.421875 C 11.078125 -3.566406 10.921875 -2.832031 10.609375 -2.21875 C 10.296875 -1.601562 9.875 -1.125 9.34375 -0.78125 C 8.3125 -0.101562 7.140625 0.234375 5.828125 0.234375 C 4.503906 0.234375 3.375 0.0195312 2.4375 -0.40625 C 1.507812 -0.832031 1.046875 -1.351562 1.046875 -1.96875 C 1.046875 -2.320312 1.242188 -2.625 1.640625 -2.875 C 1.765625 -2.957031 1.96875 -3.070312 2.25 -3.21875 C 2.550781 -2.632812 3.085938 -2.160156 3.859375 -1.796875 C 4.628906 -1.429688 5.429688 -1.25 6.265625 -1.25 C 7.097656 -1.25 7.828125 -1.484375 8.453125 -1.953125 C 9.078125 -2.429688 9.390625 -3.078125 9.390625 -3.890625 C 9.390625 -4.691406 9.113281 -5.304688 8.5625 -5.734375 C 8.007812 -6.171875 7.335938 -6.5 6.546875 -6.71875 C 5.753906 -6.9375 4.960938 -7.175781 4.171875 -7.4375 C 3.390625 -7.707031 2.722656 -8.160156 2.171875 -8.796875 C 1.617188 -9.429688 1.34375 -10.269531 1.34375 -11.3125 C 1.34375 -12.75 1.8125 -13.847656 2.75 -14.609375 C 3.695312 -15.378906 4.90625 -15.765625 6.375 -15.765625 C 7.445312 -15.765625 8.441406 -15.578125 9.359375 -15.203125 C 10.273438 -14.828125 10.734375 -14.3125 10.734375 -13.65625 C 10.734375 -13.03125 10.285156 -12.640625 9.390625 -12.484375 Z M 9.390625 -12.484375 "/></g></g></g><g fill="#2b2c2c" fill-opacity="1"><g transform="translate(177.282346, 112.744313)"><g><path d="M 1.65625 -1.265625 L 1.71875 -5.40625 L 1.71875 -10.09375 C 1.71875 -12.289062 1.660156 -14.101562 1.546875 -15.53125 C 1.804688 -15.570312 2.125 -15.59375 2.5 -15.59375 C 3.257812 -15.59375 3.640625 -15.296875 3.640625 -14.703125 C 3.640625 -14.609375 3.628906 -14.296875 3.609375 -13.765625 C 3.515625 -12.140625 3.46875 -10.703125 3.46875 -9.453125 L 3.46875 -4.75 C 3.46875 -2.644531 3.613281 -1.097656 3.90625 -0.109375 C 3.625 0.00390625 3.257812 0.0625 2.8125 0.0625 C 2.351562 0.0625 2.046875 -0.0351562 1.890625 -0.234375 C 1.734375 -0.429688 1.65625 -0.773438 1.65625 -1.265625 Z M 1.65625 -1.265625 "/></g></g></g><g fill="#2b2c2c" fill-opacity="1"><g transform="translate(183.657472, 112.744313)"><g><path d="M 11.359375 -2.796875 C 11.265625 -3.910156 11.21875 -5.875 11.21875 -8.6875 L 11.21875 -10.09375 C 11.21875 -12.289062 11.164062 -14.101562 11.0625 -15.53125 C 11.320312 -15.570312 11.5625 -15.59375 11.78125 -15.59375 C 12.539062 -15.59375 12.921875 -15.296875 12.921875 -14.703125 C 12.921875 -14.609375 12.90625 -14.296875 12.875 -13.765625 C 12.78125 -12.140625 12.734375 -10.703125 12.734375 -9.453125 L 12.734375 -5.453125 C 12.734375 -3.253906 12.789062 -1.441406 12.90625 -0.015625 C 12.65625 0.0351562 12.398438 0.0625 12.140625 0.0625 C 11.597656 0.0625 11.1875 -0.144531 10.90625 -0.5625 C 10.269531 -1.539062 9.160156 -3.421875 7.578125 -6.203125 C 6.003906 -8.992188 4.65625 -11.234375 3.53125 -12.921875 C 3.519531 -12.335938 3.515625 -9.613281 3.515625 -4.75 C 3.515625 -2.644531 3.660156 -1.097656 3.953125 -0.109375 C 3.671875 0.00390625 3.34375 0.0625 2.96875 0.0625 C 2.59375 0.0625 2.328125 -0.0351562 2.171875 -0.234375 C 2.015625 -0.429688 1.9375 -0.773438 1.9375 -1.265625 L 1.984375 -5.40625 L 1.984375 -10.09375 C 1.984375 -12.707031 1.835938 -14.488281 1.546875 -15.4375 C 1.835938 -15.5625 2.171875 -15.625 2.546875 -15.625 C 2.921875 -15.625 3.195312 -15.570312 3.375 -15.46875 C 4.039062 -15.050781 5.234375 -13.414062 6.953125 -10.5625 C 8.671875 -7.71875 10.140625 -5.128906 11.359375 -2.796875 Z M 11.359375 -2.796875 "/></g></g></g><g fill="#2b2c2c" fill-opacity="1"><g transform="translate(199.581187, 112.744313)"><g><path d="M 1.828125 -1.34375 L 1.875 -5.25 L 1.875 -9.921875 C 1.875 -12.160156 1.765625 -13.984375 1.546875 -15.390625 C 3.210938 -15.523438 5.046875 -15.59375 7.046875 -15.59375 C 9.035156 -15.59375 10.164062 -15.476562 10.4375 -15.25 C 10.582031 -15.125 10.65625 -14.894531 10.65625 -14.5625 C 10.65625 -14.238281 10.59375 -13.921875 10.46875 -13.609375 C 9.582031 -13.929688 8.132812 -14.09375 6.125 -14.09375 C 5.289062 -14.09375 4.425781 -14.070312 3.53125 -14.03125 C 3.59375 -13.34375 3.625 -11.6875 3.625 -9.0625 L 5.484375 -9.0625 C 6.785156 -9.0625 7.722656 -9.09375 8.296875 -9.15625 C 8.359375 -9.03125 8.390625 -8.804688 8.390625 -8.484375 C 8.390625 -8.160156 8.304688 -7.9375 8.140625 -7.8125 C 7.972656 -7.695312 7.695312 -7.628906 7.3125 -7.609375 C 6.9375 -7.597656 6.398438 -7.59375 5.703125 -7.59375 L 3.625 -7.59375 C 3.625 -4.1875 3.679688 -2.140625 3.796875 -1.453125 C 4.484375 -1.421875 5.035156 -1.40625 5.453125 -1.40625 C 8.078125 -1.40625 9.757812 -1.582031 10.5 -1.9375 C 10.625 -1.625 10.6875 -1.304688 10.6875 -0.984375 C 10.6875 -0.648438 10.613281 -0.425781 10.46875 -0.3125 C 10.1875 -0.0703125 8.988281 0.046875 6.875 0.046875 C 4.75 0.046875 3.453125 0.0351562 2.984375 0.015625 C 2.523438 -0.00390625 2.21875 -0.113281 2.0625 -0.3125 C 1.90625 -0.519531 1.828125 -0.863281 1.828125 -1.34375 Z M 1.828125 -1.34375 "/></g></g></g><g fill="#2b2c2c" fill-opacity="1"><g transform="translate(212.154316, 112.744313)"><g><path d="M 9.390625 -12.484375 C 9.117188 -12.992188 8.640625 -13.414062 7.953125 -13.75 C 7.273438 -14.09375 6.550781 -14.265625 5.78125 -14.265625 C 5.019531 -14.265625 4.367188 -14.046875 3.828125 -13.609375 C 3.285156 -13.171875 3.015625 -12.582031 3.015625 -11.84375 C 3.015625 -11.101562 3.210938 -10.523438 3.609375 -10.109375 C 4.015625 -9.691406 4.515625 -9.398438 5.109375 -9.234375 C 5.703125 -9.066406 6.347656 -8.867188 7.046875 -8.640625 C 7.753906 -8.410156 8.398438 -8.164062 8.984375 -7.90625 C 9.578125 -7.65625 10.070312 -7.226562 10.46875 -6.625 C 10.875 -6.019531 11.078125 -5.285156 11.078125 -4.421875 C 11.078125 -3.566406 10.921875 -2.832031 10.609375 -2.21875 C 10.296875 -1.601562 9.875 -1.125 9.34375 -0.78125 C 8.3125 -0.101562 7.140625 0.234375 5.828125 0.234375 C 4.503906 0.234375 3.375 0.0195312 2.4375 -0.40625 C 1.507812 -0.832031 1.046875 -1.351562 1.046875 -1.96875 C 1.046875 -2.320312 1.242188 -2.625 1.640625 -2.875 C 1.765625 -2.957031 1.96875 -3.070312 2.25 -3.21875 C 2.550781 -2.632812 3.085938 -2.160156 3.859375 -1.796875 C 4.628906 -1.429688 5.429688 -1.25 6.265625 -1.25 C 7.097656 -1.25 7.828125 -1.484375 8.453125 -1.953125 C 9.078125 -2.429688 9.390625 -3.078125 9.390625 -3.890625 C 9.390625 -4.691406 9.113281 -5.304688 8.5625 -5.734375 C 8.007812 -6.171875 7.335938 -6.5 6.546875 -6.71875 C 5.753906 -6.9375 4.960938 -7.175781 4.171875 -7.4375 C 3.390625 -7.707031 2.722656 -8.160156 2.171875 -8.796875 C 1.617188 -9.429688 1.34375 -10.269531 1.34375 -11.3125 C 1.34375 -12.75 1.8125 -13.847656 2.75 -14.609375 C 3.695312 -15.378906 4.90625 -15.765625 6.375 -15.765625 C 7.445312 -15.765625 8.441406 -15.578125 9.359375 -15.203125 C 10.273438 -14.828125 10.734375 -14.3125 10.734375 -13.65625 C 10.734375 -13.03125 10.285156 -12.640625 9.390625 -12.484375 Z M 9.390625 -12.484375 "/></g></g></g><g fill="#2b2c2c" fill-opacity="1"><g transform="translate(225.482184, 112.744313)"><g><path d="M 9.390625 -12.484375 C 9.117188 -12.992188 8.640625 -13.414062 7.953125 -13.75 C 7.273438 -14.09375 6.550781 -14.265625 5.78125 -14.265625 C 5.019531 -14.265625 4.367188 -14.046875 3.828125 -13.609375 C 3.285156 -13.171875 3.015625 -12.582031 3.015625 -11.84375 C 3.015625 -11.101562 3.210938 -10.523438 3.609375 -10.109375 C 4.015625 -9.691406 4.515625 -9.398438 5.109375 -9.234375 C 5.703125 -9.066406 6.347656 -8.867188 7.046875 -8.640625 C 7.753906 -8.410156 8.398438 -8.164062 8.984375 -7.90625 C 9.578125 -7.65625 10.070312 -7.226562 10.46875 -6.625 C 10.875 -6.019531 11.078125 -5.285156 11.078125 -4.421875 C 11.078125 -3.566406 10.921875 -2.832031 10.609375 -2.21875 C 10.296875 -1.601562 9.875 -1.125 9.34375 -0.78125 C 8.3125 -0.101562 7.140625 0.234375 5.828125 0.234375 C 4.503906 0.234375 3.375 0.0195312 2.4375 -0.40625 C 1.507812 -0.832031 1.046875 -1.351562 1.046875 -1.96875 C 1.046875 -2.320312 1.242188 -2.625 1.640625 -2.875 C 1.765625 -2.957031 1.96875 -3.070312 2.25 -3.21875 C 2.550781 -2.632812 3.085938 -2.160156 3.859375 -1.796875 C 4.628906 -1.429688 5.429688 -1.25 6.265625 -1.25 C 7.097656 -1.25 7.828125 -1.484375 8.453125 -1.953125 C 9.078125 -2.429688 9.390625 -3.078125 9.390625 -3.890625 C 9.390625 -4.691406 9.113281 -5.304688 8.5625 -5.734375 C 8.007812 -6.171875 7.335938 -6.5 6.546875 -6.71875 C 5.753906 -6.9375 4.960938 -7.175781 4.171875 -7.4375 C 3.390625 -7.707031 2.722656 -8.160156 2.171875 -8.796875 C 1.617188 -9.429688 1.34375 -10.269531 1.34375 -11.3125 C 1.34375 -12.75 1.8125 -13.847656 2.75 -14.609375 C 3.695312 -15.378906 4.90625 -15.765625 6.375 -15.765625 C 7.445312 -15.765625 8.441406 -15.578125 9.359375 -15.203125 C 10.273438 -14.828125 10.734375 -14.3125 10.734375 -13.65625 C 10.734375 -13.03125 10.285156 -12.640625 9.390625 -12.484375 Z M 9.390625 -12.484375 "/></g></g></g><g fill="#2b2c2c" fill-opacity="1"><g transform="translate(238.810052, 112.744313)"><g/></g></g><g fill="#2b2c2c" fill-opacity="1"><g transform="translate(245.814127, 112.744313)"><g><path d="M 9.390625 -12.484375 C 9.117188 -12.992188 8.640625 -13.414062 7.953125 -13.75 C 7.273438 -14.09375 6.550781 -14.265625 5.78125 -14.265625 C 5.019531 -14.265625 4.367188 -14.046875 3.828125 -13.609375 C 3.285156 -13.171875 3.015625 -12.582031 3.015625 -11.84375 C 3.015625 -11.101562 3.210938 -10.523438 3.609375 -10.109375 C 4.015625 -9.691406 4.515625 -9.398438 5.109375 -9.234375 C 5.703125 -9.066406 6.347656 -8.867188 7.046875 -8.640625 C 7.753906 -8.410156 8.398438 -8.164062 8.984375 -7.90625 C 9.578125 -7.65625 10.070312 -7.226562 10.46875 -6.625 C 10.875 -6.019531 11.078125 -5.285156 11.078125 -4.421875 C 11.078125 -3.566406 10.921875 -2.832031 10.609375 -2.21875 C 10.296875 -1.601562 9.875 -1.125 9.34375 -0.78125 C 8.3125 -0.101562 7.140625 0.234375 5.828125 0.234375 C 4.503906 0.234375 3.375 0.0195312 2.4375 -0.40625 C 1.507812 -0.832031 1.046875 -1.351562 1.046875 -1.96875 C 1.046875 -2.320312 1.242188 -2.625 1.640625 -2.875 C 1.765625 -2.957031 1.96875 -3.070312 2.25 -3.21875 C 2.550781 -2.632812 3.085938 -2.160156 3.859375 -1.796875 C 4.628906 -1.429688 5.429688 -1.25 6.265625 -1.25 C 7.097656 -1.25 7.828125 -1.484375 8.453125 -1.953125 C 9.078125 -2.429688 9.390625 -3.078125 9.390625 -3.890625 C 9.390625 -4.691406 9.113281 -5.304688 8.5625 -5.734375 C 8.007812 -6.171875 7.335938 -6.5 6.546875 -6.71875 C 5.753906 -6.9375 4.960938 -7.175781 4.171875 -7.4375 C 3.390625 -7.707031 2.722656 -8.160156 2.171875 -8.796875 C 1.617188 -9.429688 1.34375 -10.269531 1.34375 -11.3125 C 1.34375 -12.75 1.8125 -13.847656 2.75 -14.609375 C 3.695312 -15.378906 4.90625 -15.765625 6.375 -15.765625 C 7.445312 -15.765625 8.441406 -15.578125 9.359375 -15.203125 C 10.273438 -14.828125 10.734375 -14.3125 10.734375 -13.65625 C 10.734375 -13.03125 10.285156 -12.640625 9.390625 -12.484375 Z M 9.390625 -12.484375 "/></g></g></g><g fill="#2b2c2c" fill-opacity="1"><g transform="translate(259.142002, 112.744313)"><g><path d="M 15.53125 -7.78125 C 15.53125 -5.332031 14.878906 -3.382812 13.578125 -1.9375 C 12.273438 -0.488281 10.523438 0.234375 8.328125 0.234375 C 6.128906 0.234375 4.378906 -0.488281 3.078125 -1.9375 C 1.785156 -3.382812 1.140625 -5.332031 1.140625 -7.78125 C 1.140625 -10.207031 1.785156 -12.144531 3.078125 -13.59375 C 4.378906 -15.039062 6.128906 -15.765625 8.328125 -15.765625 C 10.523438 -15.765625 12.273438 -15.039062 13.578125 -13.59375 C 14.878906 -12.144531 15.53125 -10.207031 15.53125 -7.78125 Z M 12.390625 -12.0625 C 11.992188 -12.75 11.445312 -13.296875 10.75 -13.703125 C 10.050781 -14.117188 9.25 -14.328125 8.34375 -14.328125 C 6.726562 -14.328125 5.441406 -13.773438 4.484375 -12.671875 C 3.535156 -11.578125 3.0625 -10.175781 3.0625 -8.46875 C 3.0625 -6.625 3.457031 -4.976562 4.25 -3.53125 C 4.632812 -2.8125 5.171875 -2.238281 5.859375 -1.8125 C 6.554688 -1.394531 7.367188 -1.1875 8.296875 -1.1875 C 9.972656 -1.1875 11.269531 -1.753906 12.1875 -2.890625 C 13.101562 -4.023438 13.5625 -5.492188 13.5625 -7.296875 C 13.5625 -9.097656 13.171875 -10.6875 12.390625 -12.0625 Z M 12.390625 -12.0625 "/></g></g></g><g fill="#2b2c2c" fill-opacity="1"><g transform="translate(277.009736, 112.744313)"><g><path d="M 1.65625 -1.34375 L 1.71875 -5.25 L 1.71875 -10.09375 C 1.71875 -12.289062 1.660156 -14.101562 1.546875 -15.53125 C 1.804688 -15.570312 2.125 -15.59375 2.5 -15.59375 C 3.257812 -15.59375 3.640625 -15.296875 3.640625 -14.703125 C 3.640625 -14.609375 3.628906 -14.296875 3.609375 -13.765625 C 3.515625 -12.140625 3.46875 -10.703125 3.46875 -9.453125 L 3.46875 -7.359375 C 3.46875 -4.109375 3.519531 -2.140625 3.625 -1.453125 C 4.28125 -1.421875 4.800781 -1.40625 5.1875 -1.40625 C 7.613281 -1.40625 9.175781 -1.582031 9.875 -1.9375 C 9.988281 -1.613281 10.046875 -1.289062 10.046875 -0.96875 C 10.046875 -0.644531 9.972656 -0.425781 9.828125 -0.3125 C 9.566406 -0.0703125 8.4375 0.046875 6.4375 0.046875 C 4.4375 0.046875 3.210938 0.0351562 2.765625 0.015625 C 2.328125 -0.00390625 2.03125 -0.113281 1.875 -0.3125 C 1.726562 -0.519531 1.65625 -0.863281 1.65625 -1.34375 Z M 1.65625 -1.34375 "/></g></g></g><g fill="#2b2c2c" fill-opacity="1"><g transform="translate(288.256356, 112.744313)"><g><path d="M 1.875 -4.5 L 2.078125 -11.734375 C 2.078125 -13.222656 1.945312 -14.453125 1.6875 -15.421875 C 2 -15.535156 2.367188 -15.59375 2.796875 -15.59375 C 3.210938 -15.59375 3.523438 -15.503906 3.734375 -15.328125 C 3.941406 -15.148438 4.046875 -14.785156 4.046875 -14.234375 C 4.046875 -13.671875 3.988281 -12.242188 3.875 -9.953125 C 3.757812 -7.671875 3.703125 -5.941406 3.703125 -4.765625 C 3.703125 -3.585938 4.015625 -2.707031 4.640625 -2.125 C 5.273438 -1.550781 5.992188 -1.265625 6.796875 -1.265625 C 7.585938 -1.265625 8.40625 -1.453125 9.25 -1.828125 C 10.09375 -2.203125 10.78125 -2.640625 11.3125 -3.140625 L 11.328125 -6.140625 L 11.328125 -10.09375 C 11.328125 -12.289062 11.273438 -14.101562 11.171875 -15.53125 C 11.441406 -15.570312 11.765625 -15.59375 12.140625 -15.59375 C 12.898438 -15.59375 13.28125 -15.296875 13.28125 -14.703125 C 13.28125 -14.671875 13.265625 -14.382812 13.234375 -13.84375 C 13.140625 -12.195312 13.09375 -10.078125 13.09375 -7.484375 C 13.09375 -4.898438 13.113281 -3.195312 13.15625 -2.375 C 13.207031 -1.550781 13.335938 -0.796875 13.546875 -0.109375 C 13.265625 0.00390625 12.898438 0.0625 12.453125 0.0625 C 12.003906 0.0625 11.695312 -0.03125 11.53125 -0.21875 C 11.363281 -0.414062 11.28125 -0.78125 11.28125 -1.3125 L 11.28125 -1.5625 C 10.65625 -1.039062 9.90625 -0.609375 9.03125 -0.265625 C 8.164062 0.0664062 7.367188 0.234375 6.640625 0.234375 C 5.160156 0.234375 3.992188 -0.113281 3.140625 -0.8125 C 2.296875 -1.507812 1.875 -2.738281 1.875 -4.5 Z M 1.875 -4.5 "/></g></g></g><g fill="#2b2c2c" fill-opacity="1"><g transform="translate(304.534565, 112.744313)"><g><path d="M 4.546875 -1.265625 L 4.59375 -5.40625 L 4.59375 -10.09375 C 4.59375 -11.539062 4.566406 -12.875 4.515625 -14.09375 C 2.296875 -14.09375 0.8125 -14.066406 0.0625 -14.015625 C 0.0195312 -14.148438 0 -14.363281 0 -14.65625 C 0 -14.957031 0.078125 -15.160156 0.234375 -15.265625 C 0.398438 -15.378906 0.671875 -15.441406 1.046875 -15.453125 C 1.421875 -15.472656 2.25 -15.484375 3.53125 -15.484375 L 6.296875 -15.484375 C 8.765625 -15.484375 10.269531 -15.503906 10.8125 -15.546875 C 10.863281 -15.410156 10.890625 -15.195312 10.890625 -14.90625 C 10.890625 -14.625 10.804688 -14.425781 10.640625 -14.3125 C 10.472656 -14.195312 10.179688 -14.128906 9.765625 -14.109375 C 9.347656 -14.097656 8.257812 -14.09375 6.5 -14.09375 C 6.394531 -11.863281 6.34375 -10.316406 6.34375 -9.453125 L 6.34375 -4.75 C 6.34375 -2.644531 6.492188 -1.097656 6.796875 -0.109375 C 6.515625 0.00390625 6.148438 0.0625 5.703125 0.0625 C 5.242188 0.0625 4.9375 -0.0351562 4.78125 -0.234375 C 4.625 -0.429688 4.546875 -0.773438 4.546875 -1.265625 Z M 4.546875 -1.265625 "/></g></g></g><g fill="#2b2c2c" fill-opacity="1"><g transform="translate(316.615971, 112.744313)"><g><path d="M 1.65625 -1.265625 L 1.71875 -5.40625 L 1.71875 -10.09375 C 1.71875 -12.289062 1.660156 -14.101562 1.546875 -15.53125 C 1.804688 -15.570312 2.125 -15.59375 2.5 -15.59375 C 3.257812 -15.59375 3.640625 -15.296875 3.640625 -14.703125 C 3.640625 -14.609375 3.628906 -14.296875 3.609375 -13.765625 C 3.515625 -12.140625 3.46875 -10.703125 3.46875 -9.453125 L 3.46875 -4.75 C 3.46875 -2.644531 3.613281 -1.097656 3.90625 -0.109375 C 3.625 0.00390625 3.257812 0.0625 2.8125 0.0625 C 2.351562 0.0625 2.046875 -0.0351562 1.890625 -0.234375 C 1.734375 -0.429688 1.65625 -0.773438 1.65625 -1.265625 Z M 1.65625 -1.265625 "/></g></g></g><g fill="#2b2c2c" fill-opacity="1"><g transform="translate(322.991097, 112.744313)"><g><path d="M 15.53125 -7.78125 C 15.53125 -5.332031 14.878906 -3.382812 13.578125 -1.9375 C 12.273438 -0.488281 10.523438 0.234375 8.328125 0.234375 C 6.128906 0.234375 4.378906 -0.488281 3.078125 -1.9375 C 1.785156 -3.382812 1.140625 -5.332031 1.140625 -7.78125 C 1.140625 -10.207031 1.785156 -12.144531 3.078125 -13.59375 C 4.378906 -15.039062 6.128906 -15.765625 8.328125 -15.765625 C 10.523438 -15.765625 12.273438 -15.039062 13.578125 -13.59375 C 14.878906 -12.144531 15.53125 -10.207031 15.53125 -7.78125 Z M 12.390625 -12.0625 C 11.992188 -12.75 11.445312 -13.296875 10.75 -13.703125 C 10.050781 -14.117188 9.25 -14.328125 8.34375 -14.328125 C 6.726562 -14.328125 5.441406 -13.773438 4.484375 -12.671875 C 3.535156 -11.578125 3.0625 -10.175781 3.0625 -8.46875 C 3.0625 -6.625 3.457031 -4.976562 4.25 -3.53125 C 4.632812 -2.8125 5.171875 -2.238281 5.859375 -1.8125 C 6.554688 -1.394531 7.367188 -1.1875 8.296875 -1.1875 C 9.972656 -1.1875 11.269531 -1.753906 12.1875 -2.890625 C 13.101562 -4.023438 13.5625 -5.492188 13.5625 -7.296875 C 13.5625 -9.097656 13.171875 -10.6875 12.390625 -12.0625 Z M 12.390625 -12.0625 "/></g></g></g><g fill="#2b2c2c" fill-opacity="1"><g transform="translate(340.858832, 112.744313)"><g><path d="M 11.359375 -2.796875 C 11.265625 -3.910156 11.21875 -5.875 11.21875 -8.6875 L 11.21875 -10.09375 C 11.21875 -12.289062 11.164062 -14.101562 11.0625 -15.53125 C 11.320312 -15.570312 11.5625 -15.59375 11.78125 -15.59375 C 12.539062 -15.59375 12.921875 -15.296875 12.921875 -14.703125 C 12.921875 -14.609375 12.90625 -14.296875 12.875 -13.765625 C 12.78125 -12.140625 12.734375 -10.703125 12.734375 -9.453125 L 12.734375 -5.453125 C 12.734375 -3.253906 12.789062 -1.441406 12.90625 -0.015625 C 12.65625 0.0351562 12.398438 0.0625 12.140625 0.0625 C 11.597656 0.0625 11.1875 -0.144531 10.90625 -0.5625 C 10.269531 -1.539062 9.160156 -3.421875 7.578125 -6.203125 C 6.003906 -8.992188 4.65625 -11.234375 3.53125 -12.921875 C 3.519531 -12.335938 3.515625 -9.613281 3.515625 -4.75 C 3.515625 -2.644531 3.660156 -1.097656 3.953125 -0.109375 C 3.671875 0.00390625 3.34375 0.0625 2.96875 0.0625 C 2.59375 0.0625 2.328125 -0.0351562 2.171875 -0.234375 C 2.015625 -0.429688 1.9375 -0.773438 1.9375 -1.265625 L 1.984375 -5.40625 L 1.984375 -10.09375 C 1.984375 -12.707031 1.835938 -14.488281 1.546875 -15.4375 C 1.835938 -15.5625 2.171875 -15.625 2.546875 -15.625 C 2.921875 -15.625 3.195312 -15.570312 3.375 -15.46875 C 4.039062 -15.050781 5.234375 -13.414062 6.953125 -10.5625 C 8.671875 -7.71875 10.140625 -5.128906 11.359375 -2.796875 Z M 11.359375 -2.796875 "/></g></g></g><g fill="#2b2c2c" fill-opacity="1"><g transform="translate(356.782543, 112.744313)"><g><path d="M 9.390625 -12.484375 C 9.117188 -12.992188 8.640625 -13.414062 7.953125 -13.75 C 7.273438 -14.09375 6.550781 -14.265625 5.78125 -14.265625 C 5.019531 -14.265625 4.367188 -14.046875 3.828125 -13.609375 C 3.285156 -13.171875 3.015625 -12.582031 3.015625 -11.84375 C 3.015625 -11.101562 3.210938 -10.523438 3.609375 -10.109375 C 4.015625 -9.691406 4.515625 -9.398438 5.109375 -9.234375 C 5.703125 -9.066406 6.347656 -8.867188 7.046875 -8.640625 C 7.753906 -8.410156 8.398438 -8.164062 8.984375 -7.90625 C 9.578125 -7.65625 10.070312 -7.226562 10.46875 -6.625 C 10.875 -6.019531 11.078125 -5.285156 11.078125 -4.421875 C 11.078125 -3.566406 10.921875 -2.832031 10.609375 -2.21875 C 10.296875 -1.601562 9.875 -1.125 9.34375 -0.78125 C 8.3125 -0.101562 7.140625 0.234375 5.828125 0.234375 C 4.503906 0.234375 3.375 0.0195312 2.4375 -0.40625 C 1.507812 -0.832031 1.046875 -1.351562 1.046875 -1.96875 C 1.046875 -2.320312 1.242188 -2.625 1.640625 -2.875 C 1.765625 -2.957031 1.96875 -3.070312 2.25 -3.21875 C 2.550781 -2.632812 3.085938 -2.160156 3.859375 -1.796875 C 4.628906 -1.429688 5.429688 -1.25 6.265625 -1.25 C 7.097656 -1.25 7.828125 -1.484375 8.453125 -1.953125 C 9.078125 -2.429688 9.390625 -3.078125 9.390625 -3.890625 C 9.390625 -4.691406 9.113281 -5.304688 8.5625 -5.734375 C 8.007812 -6.171875 7.335938 -6.5 6.546875 -6.71875 C 5.753906 -6.9375 4.960938 -7.175781 4.171875 -7.4375 C 3.390625 -7.707031 2.722656 -8.160156 2.171875 -8.796875 C 1.617188 -9.429688 1.34375 -10.269531 1.34375 -11.3125 C 1.34375 -12.75 1.8125 -13.847656 2.75 -14.609375 C 3.695312 -15.378906 4.90625 -15.765625 6.375 -15.765625 C 7.445312 -15.765625 8.441406 -15.578125 9.359375 -15.203125 C 10.273438 -14.828125 10.734375 -14.3125 10.734375 -13.65625 C 10.734375 -13.03125 10.285156 -12.640625 9.390625 -12.484375 Z M 9.390625 -12.484375 "/></g></g></g></svg>