<svg xmlns="http://www.w3.org/2000/svg" xmlns:xlink="http://www.w3.org/1999/xlink" width="500" zoomAndPan="magnify" viewBox="0 0 375 374.999991" height="500" preserveAspectRatio="xMidYMid meet" version="1.0"><defs><g/><clipPath id="ed20c4212a"><path d="M 0 0.898438 L 375 0.898438 L 375 372.976562 L 0 372.976562 Z M 0 0.898438 " clip-rule="nonzero"/></clipPath><clipPath id="d4ccb5c1c0"><path d="M 11.25 0.898438 L 363.75 0.898438 C 369.964844 0.898438 375 5.933594 375 12.148438 L 375 361.726562 C 375 367.9375 369.964844 372.976562 363.75 372.976562 L 11.25 372.976562 C 5.035156 372.976562 0 367.9375 0 361.726562 L 0 12.148438 C 0 5.933594 5.035156 0.898438 11.25 0.898438 Z M 11.25 0.898438 " clip-rule="nonzero"/></clipPath></defs><g clip-path="url(#ed20c4212a)"><g clip-path="url(#d4ccb5c1c0)"><path fill="#53b88b" d="M 0 0.898438 L 374.984375 0.898438 L 374.984375 372.976562 L 0 372.976562 Z M 0 0.898438 " fill-opacity="1" fill-rule="nonzero"/></g></g><g fill="#90948f" fill-opacity="1"><g transform="translate(84.893363, 329.151472)"><g><path d="M 191.828125 -51.125 C 174.660156 -37.9375 153.140625 -26.800781 127.265625 -17.71875 C 101.390625 -8.644531 71.78125 -2.238281 38.4375 1.5 C 31.71875 2.238281 26.367188 2.671875 22.390625 2.796875 C 18.410156 2.921875 16.234375 2.609375 15.859375 1.859375 C 15.484375 1.117188 17.160156 -0.242188 20.890625 -2.234375 C 24.628906 -4.222656 30.726562 -7.085938 39.1875 -10.828125 C 49.132812 -15.054688 58.898438 -19.53125 68.484375 -24.25 C 78.066406 -28.976562 87.148438 -33.769531 95.734375 -38.625 C 104.316406 -43.476562 112.210938 -48.269531 119.421875 -53 C 126.640625 -57.726562 132.738281 -62.207031 137.71875 -66.4375 C 151.15625 -77.632812 160.546875 -87.023438 165.890625 -94.609375 C 171.242188 -102.203125 170.8125 -108.238281 164.59375 -112.71875 C 159.113281 -116.695312 151.394531 -119.679688 141.4375 -121.671875 C 131.488281 -123.660156 120.789062 -125.585938 109.34375 -127.453125 C 97.90625 -129.316406 86.273438 -131.492188 74.453125 -133.984375 C 62.640625 -136.472656 52.128906 -140.207031 42.921875 -145.1875 C 37.691406 -148.164062 34.394531 -152.578125 33.03125 -158.421875 C 31.664062 -164.273438 31.789062 -170.742188 33.40625 -177.828125 C 35.019531 -184.921875 38.003906 -192.140625 42.359375 -199.484375 C 46.710938 -206.828125 52 -213.359375 58.21875 -219.078125 C 65.1875 -225.546875 71.71875 -231.082031 77.8125 -235.6875 C 83.90625 -240.289062 89.9375 -244.332031 95.90625 -247.8125 C 101.882812 -251.300781 107.984375 -254.285156 114.203125 -256.765625 C 120.421875 -259.253906 127.015625 -261.617188 133.984375 -263.859375 C 138.210938 -265.109375 142.503906 -264.921875 146.859375 -263.296875 C 151.210938 -261.679688 155.378906 -259.253906 159.359375 -256.015625 C 163.335938 -252.785156 166.882812 -249.117188 170 -245.015625 C 173.113281 -240.910156 175.476562 -236.988281 177.09375 -233.25 C 178.707031 -229.519531 179.453125 -226.410156 179.328125 -223.921875 C 179.203125 -221.441406 177.773438 -220.203125 175.046875 -220.203125 C 153.890625 -219.953125 135.222656 -218.332031 119.046875 -215.34375 C 102.878906 -212.363281 89.070312 -208.507812 77.625 -203.78125 C 70.414062 -200.789062 66.6875 -197.488281 66.4375 -193.875 C 66.1875 -190.269531 69.789062 -185.609375 77.25 -179.890625 C 85.46875 -173.671875 94.863281 -168.257812 105.4375 -163.65625 C 116.007812 -159.050781 126.519531 -154.695312 136.96875 -150.59375 C 147.414062 -146.488281 157.429688 -142.503906 167.015625 -138.640625 C 176.597656 -134.785156 184.625 -130.617188 191.09375 -126.140625 C 199.300781 -120.421875 204.585938 -113.828125 206.953125 -106.359375 C 209.316406 -98.898438 210 -91.5625 209 -84.34375 C 208.007812 -77.132812 205.832031 -70.476562 202.46875 -64.375 C 199.113281 -58.28125 195.566406 -53.863281 191.828125 -51.125 Z M 191.828125 -51.125 "/></g></g></g><g fill="#ffffff" fill-opacity="1"><g transform="translate(93.40669, 328.164403)"><g><path d="M 191.84375 -51.140625 C 174.675781 -37.953125 153.148438 -26.816406 127.265625 -17.734375 C 101.390625 -8.648438 71.78125 -2.238281 38.4375 1.5 C 31.71875 2.238281 26.367188 2.671875 22.390625 2.796875 C 18.410156 2.921875 16.234375 2.609375 15.859375 1.859375 C 15.484375 1.117188 17.160156 -0.242188 20.890625 -2.234375 C 24.628906 -4.222656 30.726562 -7.085938 39.1875 -10.828125 C 49.144531 -15.054688 58.910156 -19.535156 68.484375 -24.265625 C 78.066406 -28.992188 87.148438 -33.78125 95.734375 -38.625 C 104.316406 -43.476562 112.21875 -48.269531 119.4375 -53 C 126.65625 -57.726562 132.75 -62.207031 137.71875 -66.4375 C 151.15625 -77.632812 160.546875 -87.023438 165.890625 -94.609375 C 171.242188 -102.203125 170.8125 -108.238281 164.59375 -112.71875 C 159.125 -116.695312 151.410156 -119.679688 141.453125 -121.671875 C 131.503906 -123.660156 120.804688 -125.585938 109.359375 -127.453125 C 97.910156 -129.328125 86.273438 -131.503906 74.453125 -133.984375 C 62.640625 -136.472656 52.128906 -140.207031 42.921875 -145.1875 C 37.691406 -148.175781 34.394531 -152.59375 33.03125 -158.4375 C 31.664062 -164.28125 31.789062 -170.75 33.40625 -177.84375 C 35.019531 -184.9375 38.003906 -192.148438 42.359375 -199.484375 C 46.710938 -206.828125 52 -213.363281 58.21875 -219.09375 C 65.1875 -225.5625 71.71875 -231.097656 77.8125 -235.703125 C 83.914062 -240.304688 89.953125 -244.347656 95.921875 -247.828125 C 101.890625 -251.304688 107.984375 -254.289062 114.203125 -256.78125 C 120.429688 -259.269531 127.023438 -261.632812 133.984375 -263.875 C 138.222656 -265.125 142.519531 -264.9375 146.875 -263.3125 C 151.226562 -261.695312 155.394531 -259.269531 159.375 -256.03125 C 163.351562 -252.800781 166.894531 -249.132812 170 -245.03125 C 173.113281 -240.925781 175.476562 -237.003906 177.09375 -233.265625 C 178.71875 -229.535156 179.46875 -226.425781 179.34375 -223.9375 C 179.21875 -221.445312 177.785156 -220.203125 175.046875 -220.203125 C 153.898438 -219.953125 135.238281 -218.332031 119.0625 -215.34375 C 102.882812 -212.363281 89.070312 -208.507812 77.625 -203.78125 C 70.414062 -200.800781 66.6875 -197.503906 66.4375 -193.890625 C 66.1875 -190.285156 69.796875 -185.625 77.265625 -179.90625 C 85.472656 -173.675781 94.863281 -168.257812 105.4375 -163.65625 C 116.007812 -159.0625 126.519531 -154.707031 136.96875 -150.59375 C 147.425781 -146.488281 157.441406 -142.507812 167.015625 -138.65625 C 176.597656 -134.800781 184.625 -130.632812 191.09375 -126.15625 C 199.300781 -120.425781 204.585938 -113.828125 206.953125 -106.359375 C 209.316406 -98.898438 210 -91.5625 209 -84.34375 C 208.007812 -77.132812 205.832031 -70.476562 202.46875 -64.375 C 199.113281 -58.28125 195.570312 -53.867188 191.84375 -51.140625 Z M 191.84375 -51.140625 "/></g></g></g></svg>