<svg xmlns="http://www.w3.org/2000/svg" xmlns:xlink="http://www.w3.org/1999/xlink" width="500" zoomAndPan="magnify" viewBox="0 0 375 374.999991" height="500" preserveAspectRatio="xMidYMid meet" version="1.0"><defs><clipPath id="3e52bbc574"><path d="M 27 27 L 348 27 L 348 348 L 27 348 Z M 27 27 " clip-rule="nonzero"/></clipPath><clipPath id="3378764895"><path d="M 308.089844 347.378906 L 66.921875 347.378906 C 45.203125 347.378906 27.632812 329.804688 27.632812 308.089844 L 27.632812 66.921875 C 27.632812 45.203125 45.203125 27.632812 66.921875 27.632812 L 308.089844 27.632812 C 329.804688 27.632812 347.378906 45.203125 347.378906 66.921875 L 347.378906 308.089844 C 347.378906 329.804688 329.804688 347.378906 308.089844 347.378906 " clip-rule="nonzero"/></clipPath><clipPath id="c73ed42c30"><path d="M 100 73.242188 L 273.925781 73.242188 L 273.925781 301 L 100 301 Z M 100 73.242188 " clip-rule="nonzero"/></clipPath><clipPath id="daaa7c1a2b"><path d="M 226.023438 76.703125 C 238.84375 83.171875 244.921875 96.210938 247.632812 104.003906 C 248.347656 106.046875 248.238281 106.933594 247.960938 107.816406 C 245.367188 115.664062 221.769531 109.972656 195.296875 115.386719 C 191.375 116.160156 157.496094 123.347656 156.667969 134.949219 C 155.5625 150.480469 213.699219 170.261719 219.058594 172.085938 C 234.753906 177.449219 250.007812 181.867188 263.492188 196.183594 C 267.96875 200.933594 270.953125 205.519531 272.609375 210.992188 C 272.609375 210.992188 275.925781 221.878906 271.285156 235.472656 C 264.484375 255.421875 235.253906 275.871094 200.4375 288.25 C 181.207031 295.101562 146.667969 304.273438 100.796875 299.6875 C 105.109375 297.808594 111.574219 294.878906 119.367188 291.066406 C 134.839844 283.605469 239.230469 233.042969 232.988281 208.890625 C 227.183594 186.566406 130.417969 201.597656 116.714844 164.238281 C 115.773438 161.699219 115.441406 159.542969 115.222656 158.160156 C 110.855469 128.042969 148.601562 101.515625 156.558594 95.9375 C 166.726562 88.808594 202.207031 64.601562 225.96875 76.59375 " clip-rule="nonzero"/></clipPath></defs><g clip-path="url(#3e52bbc574)"><g clip-path="url(#3378764895)"><rect x="-37.5" width="450" fill="#53b88b" y="-37.499999" height="449.999989" fill-opacity="1"/></g></g><g clip-path="url(#c73ed42c30)"><g clip-path="url(#daaa7c1a2b)"><rect x="-37.5" width="450" fill="#ffffff" y="-37.499999" height="449.999989" fill-opacity="1"/></g></g></svg>