<svg width="100" height="100" viewBox="0 0 163 163" fill="none" xmlns="http://www.w3.org/2000/svg">
  <rect width="163" height="163" rx="20" fill="#5BC494"/>
  <path d="M100.8 25
           C107.4 28.3 110.5 35 111.8 39
           C112.2 40 112.1 40.5 112 41
           C110.7 45 98.7 42 85.2 44.8
           C83.2 45.2 66 49 65.6 55
           C65 63 94.6 73 97.3 74
           C105.3 76.7 113 79 120 86.2
           C122.2 88.6 123.7 91 124.5 93.7
           C124.5 93.7 126.2 99.2 123.9 106.1
           C120.4 116.2 105.5 126.6 87.8 133
           C78 136.5 60.5 141.2 37.2 138.8
           C39.4 137.9 42.7 136.4 46.6 134.5
           C54.5 130.7 107.6 105 104.4 92.7
           C101.5 81.4 52.3 89 45.3 70
           C44.8 68.7 44.6 67.6 44.5 66.9
           C42.3 51.6 61.5 38.1 65.5 35.3
           C70.7 31.7 88.7 19.4 100.8 25.5"
        fill="white"/>
</svg>
